<svg width="120" height="60" xmlns="http://www.w3.org/2000/svg" xmlns:xlink="http://www.w3.org/1999/xlink">
 <defs>
  <clipPath id="F">
   <path id="svg_1" class="C D" fill="#402c07" d="m324.577,-46.342c6.325,-1.358 11.998,4.873 16.867,9.132c6.426,5.62 -8.548,26.016 13.245,19.83c5.86,-1.664 6.895,11.312 10.164,16.453c4.1,6.448 11.586,13.683 13.652,21.04c1.584,5.638 1.343,10.906 -1.627,15.953c-3.57,6.07 -11.79,10.43 -18.79,11.21c-5.73,0.64 -11.878,-3.835 -17.384,-5.55c-12.316,-3.834 -23.78,-5.82 -36.097,-9.652l-10.97,-3.426c-4.5,-1.324 -6.466,-0.993 -8.72,-4.768c-2.683,-4.49 0.68,-9.727 3.164,-14.794c4.07,-8.305 1.912,-17.826 0.462,-25.51c-0.922,-4.888 -0.66,-7.927 2.743,-10.79c4.995,-4.204 14.53,-1.532 20.353,-4.083s6.664,-13.694 12.937,-15.04l0.001,-0.005z"/>
  </clipPath>
  <filter color-interpolation-filters="sRGB" class="B" height="1.217" y="-0.108" width="1.215" x="-0.108" id="G">
   <feGaussianBlur stdDeviation="3.924"/>
  </filter>
  <filter color-interpolation-filters="sRGB" class="B" id="H">
   <feGaussianBlur stdDeviation="2.437"/>
  </filter>
  <filter color-interpolation-filters="sRGB" class="B" id="I">
   <feGaussianBlur stdDeviation="0.37"/>
  </filter>
  <clipPath id="J">
   <path id="svg_2" class="F G" stroke-miterlimit="4" stroke-width="0.125" stroke="#729fcf" fill="none" d="m435.06,-142.75s-5.106,6.345 -7.897,10.247s-5.737,6.65 -8.587,10.75s-7.365,9.432 -9.45,13.93s-2.32,9.036 -4.265,13.85s-3.7,10.642 -5.97,15.336s-5.37,9.685 -6.94,13.536s-3.81,5.724 -4.108,10.22s-0.577,8.317 3.772,16.772s17.236,22.007 24.242,27.925s9.39,7.225 14.602,8.526s13.856,2.998 16.73,-1.27s2.272,-5.965 -0.75,-10.666s-4.825,-5.302 -9.796,-9.573s-18.637,-14.873 -22.682,-19.24s-7.107,-3.412 -5.53,-6.284s-2.207,-4.01 -2.658,-7.693c-0.764,-6.245 0.944,-18.7 1.46,-22.133s1.224,-2.924 3.518,-8.04s4.124,-8.624 7.05,-13.467s8.625,-10.128 11.15,-15.278s3.504,-10.72 4.362,-15.318s1.746,-12.13 1.746,-12.13l0.001,0z"/>
  </clipPath>
  <filter color-interpolation-filters="sRGB" class="B" height="1.085" y="-0.043" width="1.202" x="-0.101" id="K">
   <feGaussianBlur stdDeviation="1.132"/>
  </filter>
  <clipPath id="L">
   <path id="svg_3" class="F G H I" stroke="#ce5c00" fill="none" d="m1566.53558,-2328.11096c-0.405,-1.104 -1.118,-2.082 -1.99,-2.87s-1.9,-1.392 -2.983,-1.852c-2.165,-0.92 -4.52,-1.26 -6.832,-1.696l-6.528,-1.277c-2.27,-0.386 -4.618,-0.632 -6.865,-0.125c-1.966,0.443 -3.784,1.46 -5.272,2.82s-2.65,3.056 -3.485,4.9c-1.472,3.23 -1.935,6.865 -1.654,10.403c0.21,2.633 0.875,5.346 2.61,7.34c1.4,1.61 3.387,2.615 5.434,3.22c3.525,1.043 7.367,0.988 10.86,-0.155a28.59,28.59 0 0 0 14.33,-10.779c1.14,-1.65 2.112,-3.448 2.553,-5.403c0.336,-1.5 0.348,-3.08 -0.178,-4.515"/>
  </clipPath>
  <filter color-interpolation-filters="sRGB" class="B" height="1.301" y="-0.151" width="1.141" x="-0.07" id="M">
   <feGaussianBlur stdDeviation="1.025"/>
  </filter>
  <clipPath id="N">
   <path id="svg_4" class="F G H I" stroke="#ce5c00" fill="none" d="m1566.53558,-2328.11096c-0.405,-1.104 -1.118,-2.082 -1.99,-2.87s-1.9,-1.392 -2.983,-1.852c-2.165,-0.92 -4.52,-1.26 -6.832,-1.696l-6.528,-1.277c-2.27,-0.386 -4.618,-0.632 -6.865,-0.125c-1.966,0.443 -3.784,1.46 -5.272,2.82s-2.65,3.056 -3.485,4.9c-1.472,3.23 -1.935,6.865 -1.654,10.403c0.21,2.633 0.875,5.346 2.61,7.34c1.4,1.61 3.387,2.615 5.434,3.22c3.525,1.043 7.367,0.988 10.86,-0.155a28.59,28.59 0 0 0 14.33,-10.779c1.14,-1.65 2.112,-3.448 2.553,-5.403c0.336,-1.5 0.348,-3.08 -0.178,-4.515"/>
  </clipPath>
  <filter color-interpolation-filters="sRGB" class="B" height="1.468" y="-0.234" width="1.401" x="-0.201" id="O">
   <feGaussianBlur stdDeviation="2.844"/>
  </filter>
  <filter color-interpolation-filters="sRGB" class="B" height="1.213" y="-0.107" width="1.183" x="-0.091" id="P">
   <feGaussianBlur stdDeviation="1.297"/>
  </filter>
  <filter color-interpolation-filters="sRGB" class="B" height="1.547" y="-0.274" width="1.939" x="-0.469" id="Q">
   <feGaussianBlur stdDeviation="0.86"/>
  </filter>
  <filter color-interpolation-filters="sRGB" class="B" height="1.965" y="-0.482" width="2.208" x="-0.604" id="R">
   <feGaussianBlur stdDeviation="2.64"/>
  </filter>
  <filter color-interpolation-filters="sRGB" class="B" id="S">
   <feGaussianBlur stdDeviation="2.209"/>
  </filter>
  <clipPath id="T">
   <path id="svg_5" class="C D" fill="url(#E)" d="m1596.35358,-2281.56296c0.91,1.597 -1.57,3.388 -2.816,4.738c-2.742,2.973 -6.45,4.902 -9.896,7.02c-5.914,3.635 -12.62,5.903 -18.42,9.717c-3.883,2.553 -7.328,5.722 -10.86,8.742c-3.022,2.584 -5.482,5.876 -8.832,8.018s-7.044,4.154 -10.99,4.65c-4.783,0.6 -9.872,-0.256 -14.3,-2.164c-3.095,-1.334 -6.16,-3.38 -7.963,-6.23c-1.813,-2.865 -2.06,-6.538 -2.233,-9.924c-0.307,-6.06 1.363,-12.06 2.178,-18.073c0.68,-5.002 1.853,-9.943 2.26,-14.975c0.74,-9.142 -0.78,-18.408 0.32,-27.513c0.355,-2.937 -0.18,-6.66 2.012,-8.644c2.038,-1.845 5.43,-1.12 8.18,-1.063c3.345,0.07 6.632,0.95 9.89,1.717c2.056,0.483 3.998,1.41 6.072,1.81c3.44,0.663 6.966,1.066 10.467,0.952c3.785,-0.124 7.437,-1.796 11.224,-1.765c1.552,0.013 3.124,0.282 4.586,0.8c1.483,0.525 2.988,1.206 4.123,2.295c0.865,0.83 1.43,1.957 1.88,3.07c0.672,1.662 0.894,3.478 1.167,5.25c0.242,1.574 -0.153,3.27 0.414,4.76c1.83,4.8 5.577,8.727 9.225,12.343c1.743,1.935 4.03,3.534 6.167,4.828c2.27,1.374 4.368,2.45 5.463,4.816c0.66,1.485 -0.544,3.76 0.683,4.826l-0.001,-0.001z"/>
  </clipPath>
  <clipPath id="U">
   <path id="svg_6" class="C D" fill="url(#E)" d="m1596.35358,-2281.56296c0.91,1.597 -1.57,3.388 -2.816,4.738c-2.742,2.973 -6.45,4.902 -9.896,7.02c-5.914,3.635 -12.62,5.903 -18.42,9.717c-3.883,2.553 -7.328,5.722 -10.86,8.742c-3.022,2.584 -5.482,5.876 -8.832,8.018s-7.044,4.154 -10.99,4.65c-4.783,0.6 -9.872,-0.256 -14.3,-2.164c-3.095,-1.334 -6.16,-3.38 -7.963,-6.23c-1.813,-2.865 -2.06,-6.538 -2.233,-9.924c-0.307,-6.06 1.363,-12.06 2.178,-18.073c0.68,-5.002 1.853,-9.943 2.26,-14.975c0.74,-9.142 -0.78,-18.408 0.32,-27.513c0.355,-2.937 -0.18,-6.66 2.012,-8.644c2.038,-1.845 5.43,-1.12 8.18,-1.063c3.345,0.07 6.632,0.95 9.89,1.717c2.056,0.483 3.998,1.41 6.072,1.81c3.44,0.663 6.966,1.066 10.467,0.952c3.785,-0.124 7.437,-1.796 11.224,-1.765c1.552,0.013 3.124,0.282 4.586,0.8c1.483,0.525 2.988,1.206 4.123,2.295c0.865,0.83 1.43,1.957 1.88,3.07c0.672,1.662 0.894,3.478 1.167,5.25c0.242,1.574 -0.153,3.27 0.414,4.76c1.83,4.8 5.577,8.727 9.225,12.343c1.743,1.935 4.03,3.534 6.167,4.828c2.27,1.374 4.368,2.45 5.463,4.816c0.66,1.485 -0.544,3.76 0.683,4.826l-0.001,-0.001z"/>
  </clipPath>
  <filter color-interpolation-filters="sRGB" class="B" height="1.286" y="-0.143" width="1.29" x="-0.145" id="V">
   <feGaussianBlur stdDeviation="4.779"/>
  </filter>
  <clipPath id="W">
   <path id="svg_7" class="C D" fill="url(#D)" d="m2002.17458,-2281.53896c0.795,1.296 -1.374,2.75 -2.464,3.845c-2.4,2.413 -5.644,3.978 -8.66,5.697c-5.174,2.95 -11.04,4.8 -16.116,7.885c-3.397,2.072 -6.41,4.644 -9.502,7.094c-2.644,2.097 -4.796,4.77 -7.728,6.506s-6.163,3.37 -9.616,3.774c-4.185,0.488 -8.637,-0.208 -12.5,-1.756c-2.708,-1.083 -5.4,-2.744 -6.967,-5.055c-1.586,-2.325 -1.803,-5.305 -1.953,-8.053c-0.27,-4.918 1.192,-9.787 1.906,-14.666c0.594,-4.06 1.62,-8.07 1.977,-12.152c0.647,-7.418 -0.682,-14.938 0.28,-22.327c0.3,-2.383 -0.158,-5.404 1.76,-7.014c1.783,-1.497 4.75,-0.9 7.156,-0.862c2.927,0.058 5.803,0.772 8.652,1.393c1.8,0.392 3.498,1.145 5.313,1.47c3,0.538 6.094,0.865 9.158,0.772c3.312,-0.1 6.506,-1.458 9.82,-1.432c1.358,0.01 2.733,0.23 4.013,0.65c1.297,0.426 2.614,0.98 3.607,1.862c0.757,0.674 1.25,1.588 1.644,2.5c0.588,1.35 0.782,2.822 1.02,4.26c0.212,1.277 -0.134,2.655 0.363,3.862c1.6,3.895 4.88,7.082 8.07,10.016c1.525,1.57 3.526,2.868 5.396,3.918c1.985,1.115 3.82,1.988 4.78,3.908c0.577,1.205 -0.476,3.052 0.598,3.917l-0.007,-0.012z"/>
  </clipPath>
  <filter color-interpolation-filters="sRGB" class="B" height="1.25" y="-0.125" width="1.231" x="-0.115" id="X">
   <feGaussianBlur stdDeviation="3.173"/>
  </filter>
  <filter color-interpolation-filters="sRGB" class="B" height="1.259" y="-0.129" width="1.042" x="-0.021" id="Y">
   <feGaussianBlur stdDeviation="0.479"/>
  </filter>
  <filter color-interpolation-filters="sRGB" class="B" height="1.319" y="-0.159" width="1.355" x="-0.178" id="Z">
   <feGaussianBlur stdDeviation="0.901"/>
  </filter>
  <filter color-interpolation-filters="sRGB" class="B" id="a" x="-0.817" width="2.633" y="-0.058" height="1.116">
   <feGaussianBlur stdDeviation="1.446"/>
  </filter>
  <filter color-interpolation-filters="sRGB" class="B" id="c">
   <feGaussianBlur stdDeviation="0.785"/>
  </filter>
  <filter color-interpolation-filters="sRGB" class="B" id="d">
   <feGaussianBlur stdDeviation="1.138"/>
  </filter>
  <filter color-interpolation-filters="sRGB" class="B" id="e">
   <feGaussianBlur stdDeviation="0.643"/>
  </filter>
  <clipPath id="f">
   <path id="svg_8" class="F G H I" stroke="#c17d11" fill="none" d="m491.847,-101.912c6.016,4.923 9.777,12.317 10.943,20.003c1.825,12.03 -2.346,24.075 -6.446,35.533c-0.817,2.285 -1.64,4.6 -1.965,6.995s-0.12,4.948 1.03,7.086c1.303,2.425 3.732,4.125 6.367,4.923c2.59,0.784 5.394,0.76 8.015,0.092s5.06,-1.968 7.187,-3.64c5.48,-4.3 8.758,-10.986 10,-17.844s0.64,-13.93 -0.55,-20.798c-1.623,-9.37 -4.31,-18.54 -7.74,-27.408c-2.518,-6.507 -5.468,-12.91 -9.618,-18.52c-4.046,-5.47 -9.162,-10.1 -13.103,-15.635c-2.732,-3.844 -4.9,-8.13 -8.192,-11.508c-1.646,-1.69 -3.577,-3.135 -5.77,-4s-4.664,-1.124 -6.933,-0.482c-1.505,0.426 -2.892,1.237 -4.038,2.3s-2.053,2.376 -2.693,3.803c-1.28,2.853 -1.477,6.112 -0.965,9.198c0.66,3.983 2.444,7.693 4.466,11.19c2.274,3.932 4.918,7.72 8.384,10.654c3.6,3.047 7.962,5.074 11.61,8.06"/>
  </clipPath>
  <filter color-interpolation-filters="sRGB" class="B" height="1.08" y="-0.04" width="1.235" x="-0.118" id="g">
   <feGaussianBlur stdDeviation="1.352"/>
  </filter>
  <clipPath id="h">
   <path id="svg_9" class="C D" fill="url(#B)" d="m1544.57958,-2491.07696c-3.792,4.79 -8.518,11.69 -8.193,17.25s3.86,13.935 8.375,16s5.754,0.013 8.33,-2.5s3.86,-7.348 4.006,-12.25s-3.035,-11.92 -5.44,-15.25s-3.287,-8.04 -7.08,-3.25l0.002,0z"/>
  </clipPath>
  <filter color-interpolation-filters="sRGB" class="B" id="i" x="-0.155" width="1.31" y="-0.215" height="1.43">
   <feGaussianBlur stdDeviation="0.899"/>
  </filter>
  <filter color-interpolation-filters="sRGB" class="B" id="j">
   <feGaussianBlur stdDeviation="0.758"/>
  </filter>
  <filter color-interpolation-filters="sRGB" class="B" height="1.261" y="-0.13" width="1.322" x="-0.161" id="k">
   <feGaussianBlur stdDeviation="0.849"/>
  </filter>
  <filter color-interpolation-filters="sRGB" class="B" id="m">
   <feGaussianBlur stdDeviation="0.11"/>
  </filter>
  <filter color-interpolation-filters="sRGB" class="B" height="1.211" y="-0.106" width="1.233" x="-0.116" id="n">
   <feGaussianBlur stdDeviation="0.11"/>
  </filter>
  <filter color-interpolation-filters="sRGB" class="B" id="o" x="-0.107" width="1.215" y="-0.136" height="1.272">
   <feGaussianBlur stdDeviation="0.264"/>
  </filter>
  <filter color-interpolation-filters="sRGB" class="B" id="p" x="-0.234" width="1.469" y="-0.146" height="1.292">
   <feGaussianBlur stdDeviation="0.513"/>
  </filter>
  <filter color-interpolation-filters="sRGB" class="B" id="r">
   <feGaussianBlur stdDeviation="0.135"/>
  </filter>
  <filter color-interpolation-filters="sRGB" class="B" id="s">
   <feGaussianBlur stdDeviation="0.148"/>
  </filter>
  <clipPath id="t">
   <path id="svg_10" class="C D" fill="url(#A)" d="m272.75,-205c-2.547,2.127 -5.208,4.6 -6.25,7.75c-1.31,3.96 -1.633,8.917 0.5,12.5c3.92,6.582 12.384,13.85 19.75,11.75c4.875,-1.39 6.107,-8.5 7,-13.5c0.59,-3.307 0.596,-7.193 -1.25,-10c-3.612,-5.493 -10.427,-9.894 -17,-10c-1.044,-0.017 -1.95,0.83 -2.75,1.5z"/>
  </clipPath>
  <filter color-interpolation-filters="sRGB" class="B" id="u" x="-0.158" width="1.316" y="-0.209" height="1.418">
   <feGaussianBlur stdDeviation="0.249"/>
  </filter>
  <filter color-interpolation-filters="sRGB" class="B" id="v" x="-0.179" width="1.357" y="-0.181" height="1.363">
   <feGaussianBlur stdDeviation="0.519"/>
  </filter>
  <filter color-interpolation-filters="sRGB" class="B" height="1.617" y="-0.308" width="1.584" x="-0.292" id="w">
   <feGaussianBlur stdDeviation="1.74"/>
  </filter>
  <filter color-interpolation-filters="sRGB" class="B" id="x" x="-0.054" width="1.108" y="-0.107" height="1.215">
   <feGaussianBlur stdDeviation="1.361"/>
  </filter>
  <filter color-interpolation-filters="sRGB" class="B" id="y">
   <feGaussianBlur stdDeviation="0.932"/>
  </filter>
  <filter color-interpolation-filters="sRGB" class="B" id="z" x="-0.076" width="1.153" y="-0.129" height="1.258">
   <feGaussianBlur stdDeviation="2.036"/>
  </filter>
  <path d="m71.484,295.64c-0.563,-1.102 -1.587,-1.926 -2.73,-2.403s-2.397,-0.63 -3.634,-0.62c-2.475,0.02 -4.935,0.664 -7.4,0.45c-2.083,-0.18 -4.06,-0.963 -6.1,-1.457c-2.097,-0.5 -4.322,-0.7 -6.405,-0.143c-2.226,0.606 -4.19,2.094 -5.42,4.045c-1.084,1.72 -1.6,3.753 -1.76,5.78s0.013,4.066 0.218,6.09c0.148,1.464 0.314,2.93 0.668,4.36s0.904,2.823 1.766,4.015c1.24,1.716 3.083,2.94 5.07,3.675a14.09,14.09 0 0 0 10.132,-0.177c5.66,-2.457 10.45,-6.864 13.37,-12.3c1.045,-1.946 1.857,-4.02 2.382,-6.165c0.208,-0.853 0.372,-1.722 0.38,-2.6s-0.147,-1.77 -0.546,-2.55l0.009,0z" id="Aa"/>
  <path d="m362.22,276.456a13.48,13.48 0 0 0 -1.625,0.188c-3.47,0.617 -6.647,2.81 -8.437,5.844a12.38,12.38 0 0 0 -1.656,7.156c0.073,-1.742 0.53,-3.447 1.375,-4.97c1.434,-2.582 4.032,-4.53 6.938,-5.062c1.8,-0.328 3.632,-0.13 5.438,0.094c1.733,0.216 3.48,0.443 5.188,0.813c2.64,0.572 5.254,1.45 7.47,3c0.516,0.36 1,0.77 1.406,1.25s0.722,1.038 0.844,1.656c0.178,0.904 -0.08,1.853 -0.53,2.656s-1.065,1.507 -1.72,2.156c-0.53,0.526 -1.095,1.034 -1.656,1.53c2.56,-0.496 5.152,-1.198 7.28,-2.687c0.9,-0.63 1.715,-1.385 2.25,-2.344s0.762,-2.12 0.5,-3.187c-0.177,-0.72 -0.57,-1.382 -1.062,-1.937s-1.08,-1.012 -1.687,-1.437c-2.68,-1.877 -5.815,-3.08 -9.062,-3.47c-2.08,-0.383 -4.18,-0.706 -6.28,-0.97c-1.643,-0.206 -3.32,-0.373 -4.97,-0.28l-0.004,0.001z" id="Ab"/>
  <radialGradient xlink:href="#Ac" id="A" gradientTransform="matrix(1.0857794,-0.03431182,0.03943781,1.2479887,-154.54194,-26.542647)" cx="223.196" cy="137.661" fx="223.196" fy="137.661" r="14.572">
   <stop stop-color="#fefefc" offset="0"/>
   <stop stop-color="#fefefc" offset="0.757"/>
   <stop stop-color="#d4d4d4" offset="1"/>
  </radialGradient>
  <radialGradient xlink:href="#Ac" id="B" gradientTransform="matrix(0.81524244,-0.03431182,0.02961133,1.2479887,-129.43743,-26.542647)" cx="223.196" cy="137.661" fx="223.196" fy="137.661" r="14.572">
   <stop stop-color="#fefefc" offset="0"/>
   <stop stop-color="#fefefc" offset="0.757"/>
   <stop stop-color="#d4d4d4" offset="1"/>
  </radialGradient>
  <linearGradient xlink:href="#Ac" id="C">
   <stop stop-color="#3e2a06" offset="0"/>
   <stop stop-color="#ad780a" offset="1"/>
  </linearGradient>
  <linearGradient y2="300.828" x2="489.181" y1="364.09" x1="447.113" id="D" xlink:href="#C"/>
  <linearGradient y2="293.585" x2="490.122" y1="371.544" x1="442.039" id="E" xlink:href="#C"/>
  <linearGradient xlink:href="#Ac" id="b">
   <stop offset="0"/>
   <stop stop-opacity="0.25" offset="1"/>
  </linearGradient>
  <linearGradient xlink:href="#Ac" id="l">
   <stop stop-color="#3a2903" offset="0"/>
   <stop stop-color="#735208" offset="0.555"/>
   <stop stop-color="#ac8c04" offset="1"/>
  </linearGradient>
  <linearGradient xlink:href="#Ac" id="q">
   <stop stop-opacity="0" stop-color="#646464" offset="0"/>
   <stop stop-opacity="0.583" stop-color="#646464" offset="0.306"/>
   <stop stop-color="#646464" offset="0.47"/>
   <stop stop-opacity="0.257" stop-color="#646464" offset="0.728"/>
   <stop stop-opacity="0" stop-color="#646464" offset="1"/>
  </linearGradient>
  <radialGradient xlink:href="#Ac" r="14.572" fy="137.661" fx="223.196" cy="137.661" cx="223.196" gradientTransform="matrix(0.10211825,-0.00429794,0.00370915,0.15632456,-160.77646,325.22342)" id="AA">
   <stop stop-color="#fefefc" offset="0"/>
   <stop stop-color="#fefefc" offset="0.757"/>
   <stop stop-color="#d4d4d4" offset="1"/>
  </radialGradient>
  <radialGradient xlink:href="#Ac" r="14.572" fy="137.661" fx="223.196" cy="137.661" cx="223.196" gradientTransform="matrix(0.13600603,-0.00429794,0.00494003,0.15632456,-163.92108,325.22342)" id="AB">
   <stop stop-color="#fefefc" offset="0"/>
   <stop stop-color="#fefefc" offset="0.757"/>
   <stop stop-color="#d4d4d4" offset="1"/>
  </radialGradient>
  <radialGradient xlink:href="#Ac" r="15.382" fy="150.651" fx="275.538" cy="150.651" cx="275.538" gradientTransform="matrix(0.08741297,-0.06352916,0.05766287,0.07934124,-168.62589,352.6021)" id="AC">
   <stop stop-color="#020204" offset="0"/>
   <stop stop-color="#020204" offset="0.734"/>
   <stop stop-color="#5c5c5c" offset="1"/>
  </radialGradient>
  <linearGradient xlink:href="#Ac" y2="140.725" x2="309.733" y1="132.77" x1="303.016" id="AD">
   <stop stop-opacity="0.392" stop-color="#949494" offset="0"/>
   <stop stop-color="#949494" offset="0.5"/>
   <stop stop-opacity="0.392" stop-color="#949494" offset="1"/>
  </linearGradient>
  <linearGradient xlink:href="#Ac" y2="132.487" x2="108.625" y1="119.987" x1="87.25" id="AE">
   <stop stop-color="#747474" offset="0"/>
   <stop stop-color="#8c8c8c" offset="0.125"/>
   <stop stop-color="#a4a4a4" offset="0.25"/>
   <stop stop-color="#d4d4d4" offset="0.5"/>
   <stop stop-color="#d4d4d4" offset="0.619"/>
   <stop stop-color="#7c7c7c" offset="1"/>
  </linearGradient>
  <linearGradient y2="118.997" x2="29.741" y1="105.562" x1="15.51" id="AF" xlink:href="#q"/>
  <linearGradient y2="119.571" x2="-12.373" y1="106.666" x1="-25.773" id="AG" xlink:href="#q"/>
  <linearGradient xlink:href="#Ac" y2="142.493" x2="169.882" y1="132.063" x1="164.049" id="AH">
   <stop stop-opacity="0" stop-color="#757574" offset="0"/>
   <stop stop-color="#757574" offset="0.263"/>
   <stop stop-color="#757574" offset="0.5"/>
   <stop stop-opacity="0" stop-color="#757574" offset="1"/>
  </linearGradient>
  <radialGradient xlink:href="#Ac" r="31.111" fy="193.099" fx="294.485" cy="193.099" cx="294.485" gradientTransform="matrix(0.93618683,-0.38640412,0.27133164,0.65738721,-244.47527,146.7229)" id="AI">
   <stop stop-color="#d2940a" offset="0"/>
   <stop stop-color="#d89c08" offset="0.751"/>
   <stop stop-color="#b67e07" offset="0.866"/>
   <stop stop-color="#946106" offset="1"/>
  </radialGradient>
  <linearGradient xlink:href="#Ac" y2="157.872" x2="103.337" y1="158.314" x1="46.857" id="AJ">
   <stop stop-color="#ad780a" offset="0"/>
   <stop stop-color="#d89e08" offset="0.12"/>
   <stop stop-color="#edb80b" offset="0.255"/>
   <stop stop-color="#ebc80d" offset="0.392"/>
   <stop stop-color="#f5d838" offset="0.527"/>
   <stop stop-color="#f6d811" offset="0.769"/>
   <stop stop-color="#f5cd31" offset="1"/>
  </linearGradient>
  <radialGradient r="3.23" fy="147.093" fx="77.672" cy="147.093" cx="77.672" gradientTransform="matrix(1.0000004,0,0,0.5833264,-3.4574816e-5,61.416192)" id="AK" xlink:href="#l"/>
  <radialGradient r="1.535" fy="147.441" fx="63.125" cy="147.441" cx="63.125" gradientTransform="matrix(1,0,0,1.0751189,0,-11.094161)" id="AL" xlink:href="#l"/>
  <linearGradient xlink:href="#Ac" y2="159.768" x2="243.469" y1="157.018" x1="243.031" id="AM">
   <stop stop-color="#f5ce2d" offset="0"/>
   <stop stop-color="#d79b08" offset="1"/>
  </linearGradient>
  <radialGradient xlink:href="#Ac" r="35.511" fy="126.535" fx="268.07" cy="126.535" cx="268.07" gradientTransform="matrix(0.20141143,-0.03316079,0.03065006,0.18616184,-3.1263574,114.03586)" id="AN">
   <stop stop-color="#c8c8c8" offset="0"/>
   <stop stop-color="#797978" offset="1"/>
  </radialGradient>
  <radialGradient xlink:href="#Ac" r="27.391" fy="220.538" fx="336.224" cy="220.538" cx="336.224" gradientTransform="matrix(-0.69844216,0,0,0.76335815,166.3057,50.219935)" id="AO">
   <stop offset="0"/>
   <stop stop-opacity="0.25" offset="1"/>
  </radialGradient>
  <radialGradient r="27.391" fy="236.366" fx="312.145" cy="236.366" cx="312.145" gradientTransform="matrix(1,0,0,0.76335815,-289,41.219938)" id="AP" xlink:href="#b"/>
  <radialGradient r="10.845" fy="225.135" fx="275.554" cy="225.135" cx="275.554" gradientTransform="matrix(1,0,0,1.0692348,-289,-23.860302)" id="AQ" xlink:href="#b"/>
  <linearGradient xlink:href="#Ac" y2="351.487" x2="31.982" y1="323.901" x1="28.286" id="AR">
   <stop offset="0"/>
   <stop stop-opacity="0" offset="1"/>
  </linearGradient>
  <linearGradient xlink:href="#Ac" y2="293.585" x2="490.122" y1="371.544" x1="442.039" id="AS">
   <stop stop-color="#3e2a06" offset="0"/>
   <stop stop-color="#ad780a" offset="1"/>
  </linearGradient>
  <linearGradient xlink:href="#Ac" y2="302.317" x2="43.75" y1="289.589" x1="45.164" id="AT">
   <stop stop-color="#f3cd0c" offset="0"/>
   <stop stop-opacity="0" stop-color="#f3cd0c" offset="1"/>
  </linearGradient>
  <radialGradient xlink:href="#Ac" r="16.846" fy="303.415" fx="363.34" cy="303.415" cx="363.34" gradientTransform="matrix(1.3082075,0.35053296,-0.36795399,1.3732236,-310.50935,-240.34915)" id="AU">
   <stop stop-color="#110800" offset="0"/>
   <stop stop-opacity="0.8" stop-color="#a65a00" offset="0.591"/>
   <stop stop-opacity="0" stop-color="#ff921e" offset="1"/>
  </radialGradient>
  <radialGradient xlink:href="#Ac" r="16.846" fy="303.415" fx="363.34" cy="303.415" cx="363.34" gradientTransform="matrix(1.3082075,0.35053296,-0.36795399,1.3732236,-310.50935,-240.34915)" id="AV">
   <stop stop-color="#110800" offset="0"/>
   <stop stop-opacity="0.8" stop-color="#a65a00" offset="0.591"/>
   <stop stop-opacity="0" stop-color="#ff921e" offset="1"/>
  </radialGradient>
  <radialGradient xlink:href="#Ac" r="20.538" fy="246.858" fx="382.235" cy="246.858" cx="382.235" gradientTransform="matrix(0.36025223,0.15680447,-0.07246786,0.16649214,260.61683,181.93825)" id="AW">
   <stop stop-color="#7c7c7c" offset="0"/>
   <stop stop-opacity="0.33" stop-color="#7c7c7c" offset="1"/>
  </radialGradient>
  <linearGradient xlink:href="#Ac" y2="279.237" x2="361.5" y1="279.362" x1="358.5" id="AX">
   <stop stop-color="#7c7c7c" offset="0"/>
   <stop stop-opacity="0.33" stop-color="#7c7c7c" offset="1"/>
  </linearGradient>
  <linearGradient xlink:href="#Ac" y2="381.62" x2="170.864" y1="301.54" x1="123.134" id="AY">
   <stop stop-color="#b98309" offset="0"/>
   <stop stop-color="#382605" offset="1"/>
  </linearGradient>
  <linearGradient xlink:href="#Ac" y2="350.508" x2="186.066" y1="322.223" x1="171.04" id="AZ">
   <stop stop-color="#ebc40c" offset="0"/>
   <stop stop-opacity="0" stop-color="#ebc40c" offset="1"/>
  </linearGradient>
  <linearGradient gradientUnits="userSpaceOnUse" id="Ac"/>
 </defs>
 <g>
  <title>Layer 1</title>
  <g stroke="null" id="svg_11">
   <g stroke="null" id="svg_12" fill="#020204" class="E">
    <path stroke="null" id="svg_13" d="m60.31363,23.95l1.28309,2.644c0.78928,1.712 1.38631,3.52 1.63523,5.385s0.13964,3.8 -0.4503,5.578c-0.66786,2.018 -1.93273,3.814 -3.48094,5.284c-1.83357,1.74 -4.18927,3.08 -6.72712,3.178c-1.65446,0.064 -3.30183,-0.403 -4.76606,-1.165c-1.23148,-0.64 -2.35571,-1.494 -3.25225,-2.545s-1.56339,-2.303 -1.87202,-3.644c-0.37946,-1.65 -0.20845,-3.404 0.36631,-5c0.41083,-1.14 1.02,-2.203 1.4541,-3.336c0.47357,-1.238 0.73869,-2.56 1.36607,-3.728c0.5697,-1.06 1.42273,-1.965 1.87607,-3.078c0.27119,-0.665 0.38857,-1.38 0.56363,-2.074s0.41994,-1.396 0.89654,-1.936c0.57375,-0.65 1.4369,-1.004 2.30714,-1.103s1.74654,0.035 2.59856,0.227c0.67797,0.153 1.34785,0.343 2.00357,0.573c0.55958,0.197 1.11309,0.426 1.5988,0.766c0.65774,0.464 1.16065,1.116 1.56136,1.81s0.70631,1.437 1.04226,2.164l-0.00405,0z"/>
    <path stroke="null" id="svg_14" d="m53.02591,46.035l2.08452,0.2l1.80726,0.352c0.935,0.224 1.86696,0.5 2.82827,0.537c0.25298,0.007 0.50797,-0.004 0.75589,-0.058a1.67976,1.66 0 0 0 0.68506,-0.31c0.29548,-0.233 0.48268,-0.584 0.5525,-0.95s0.02631,-0.75 -0.08095,-1.106c-0.21756,-0.715 -0.68303,-1.325 -1.06958,-1.966l-0.65774,-1.105c-0.23982,-0.356 -0.52619,-0.69 -0.89047,-0.92c-0.50292,-0.32 -1.12625,-0.425 -1.72226,-0.366s-1.16571,0.27 -1.69797,0.543c-0.74476,0.38 -1.44702,0.904 -1.85178,1.63c-0.14167,0.252 -0.24286,0.524 -0.36428,0.787s-0.26006,0.522 -0.46345,0.73c-0.22667,0.23 -0.52113,0.386 -0.75589,0.61c-0.11738,0.11 -0.21958,0.24 -0.2803,0.39s-0.07488,0.32 -0.02024,0.472a0.64762,0.64 0 0 0 0.19125,0.267a0.91071,0.9 0 0 0 0.29042,0.16c0.21048,0.073 0.43714,0.084 0.65976,0.097l0,0.006z"/>
    <path stroke="null" id="svg_15" d="m50.96366,45.99c-0.58083,0.013 -1.15559,0.116 -1.72529,0.232l-1.62309,0.374c-0.90666,0.235 -1.81434,0.517 -2.75237,0.537a2.98511,2.95 0 0 1 -0.73565,-0.063c-0.23982,-0.055 -0.47357,-0.153 -0.66583,-0.305c-0.30357,-0.232 -0.48167,-0.582 -0.55149,-0.948s-0.02732,-0.747 0.08095,-1.104c0.21554,-0.714 0.67595,-1.325 1.0544,-1.97l0.6375,-1.103c0.23274,-0.356 0.51202,-0.7 0.87024,-0.922c0.48774,-0.317 1.09589,-0.424 1.67672,-0.368s1.13738,0.268 1.6494,0.545c0.72351,0.4 1.38327,0.928 1.80118,1.63c0.30357,0.492 0.46244,1.055 0.80547,1.515c0.18417,0.248 0.4169,0.462 0.57071,0.73a1.09285,1.08 0 0 1 0.14571,0.435c0.01417,0.155 -0.02024,0.313 -0.10625,0.44a0.67797,0.67 0 0 1 -0.22768,0.203a0.99166,0.98 0 0 1 -0.2894,0.104c-0.20238,0.042 -0.40982,0.035 -0.61524,0.04l0,-0.002zm-3.2563,-23.9l-0.19024,-5.728c0.03744,-0.953 0.1953,-1.917 0.62333,-2.772a4.72558,4.67 0 0 1 1.97523,-2.032c0.80952,-0.426 1.72023,-0.608 2.62791,-0.598c1.23148,0.013 2.46702,0.38 3.46475,1.095c0.62536,0.448 1.15154,1.024 1.56642,1.668c0.35417,0.55 0.6294,1.15 0.80143,1.778c0.35417,1.3 0.27018,2.65 0.33899,3.983c0.06577,1.264 0.27018,2.525 0.20036,3.8c-0.01518,0.274 -0.04554,0.555 -0.16899,0.802a1.39642,1.38 0 0 1 -0.56059,0.566a2.22618,2.2 0 0 1 -0.76803,0.249c-0.53631,0.082 -1.08273,0.028 -1.62309,0.077c-0.78321,0.072 -1.53,0.36 -2.30714,0.478c-0.9269,0.14 -1.87202,0.04 -2.80702,0.004l-1.11309,-0.065c-0.37238,-0.046 -0.74375,-0.135 -1.07565,-0.3c-0.20238,-0.108 -0.39161,-0.248 -0.54339,-0.42s-0.26815,-0.377 -0.32786,-0.597c-0.08905,-0.332 -0.04857,-0.682 -0.04048,-1.025a5.41367,5.35 0 0 0 -0.06173,-0.94l-0.01113,-0.023z"/>
   </g>
   <path stroke="null" id="svg_16" fill="#fdfdfb" d="m49.18271,21.706c0.03744,0.834 -0.11839,1.676 -0.45333,2.443c-0.17911,0.41 -0.40881,0.8 -0.65369,1.175c-0.425,0.653 -0.91071,1.288 -1.14345,2.03c-0.14167,0.45 -0.18821,0.93 -0.13155,1.4a14.96602,14.79 0 0 0 -1.32154,2.352c-0.55655,1.245 -0.93702,2.57 -1.07262,3.926c-0.16393,1.66 0.0506,3.365 0.71339,4.897c0.47964,1.108 1.19404,2.122 2.12499,2.912c0.46851,0.4 0.98863,0.744 1.54517,1.014c1.92868,0.937 4.3107,0.938 6.207,-0.06c0.99166,-0.522 1.82749,-1.285 2.63398,-2.057c0.48571,-0.465 0.96839,-0.94 1.33976,-1.5c0.71339,-1.076 0.96131,-2.384 1.11613,-3.662c0.27018,-2.234 0.27827,-4.593 -0.71238,-6.62a7.38688,7.3 0 0 0 -1.34077,-1.897c-0.14976,-0.974 -0.43512,-1.927 -0.84797,-2.824l-0.94714,-1.915c-0.23476,-0.534 -0.42905,-1.107 -0.83988,-1.526c-0.425,-0.436 -1.04226,-0.652 -1.65244,-0.707s-1.21428,0.036 -1.82952,0.133l-2.72202,0.485l-0.01214,0.001z"/>
   <path stroke="null" id="svg_17" filter="url(#z)" fill-opacity="0.26" d="m48.8854,23.93359c0.21586,0.61854 0.65024,1.14639 1.16434,1.55875c0.17111,0.13716 0.35262,0.26355 0.5534,0.35286s0.42234,0.14029 0.64162,0.12175c0.21484,-0.01804 0.41917,-0.10146 0.60714,-0.20618s0.362,-0.23136 0.54415,-0.34534c0.31219,-0.19541 0.64643,-0.35324 0.97054,-0.5286c0.39065,-0.21132 0.76938,-0.45094 1.0983,-0.74656c0.15058,-0.13591 0.29102,-0.28409 0.45732,-0.40084s0.36543,-0.20117 0.56886,-0.18752c0.15261,0.01027 0.29571,0.07441 0.44515,0.10622c0.07605,0.01591 0.1521,0.0238 0.22777,0.01228s0.14957,-0.04309 0.20255,-0.0977c0.0649,-0.06676 0.09329,-0.16284 0.08873,-0.25553s-0.036,-0.182 -0.07985,-0.26392c-0.08746,-0.16384 -0.21991,-0.30501 -0.27885,-0.48075c-0.05248,-0.15658 -0.04183,-0.32568 -0.03727,-0.49027s0.00101,-0.33695 -0.07605,-0.48313c-0.05856,-0.11148 -0.15667,-0.19979 -0.26897,-0.25854s-0.23829,-0.08768 -0.36454,-0.10071c-0.25287,-0.02342 -0.50625,0.02505 -0.75975,0.03921c-0.33665,0.01879 -0.67457,-0.0228 -1.0111,-0.00276c-0.41955,0.02505 -0.83111,0.1453 -1.25155,0.14605c-0.47988,0.00088 -0.95926,-0.15432 -1.43331,-0.08017c-0.20344,0.03182 -0.39737,0.10497 -0.59269,0.16935s-0.39711,0.12113 -0.60296,0.11825c-0.23373,-0.00338 -0.46011,-0.0833 -0.69333,-0.09983c-0.11661,-0.00827 -0.23601,0 -0.34553,0.04046s-0.20851,0.11574 -0.26212,0.21833c-0.0308,0.05887 -0.04601,0.12489 -0.04893,0.19102s0.00634,0.1324 0.02256,0.19666c0.03232,0.12852 0.09177,0.24839 0.13943,0.37165c0.17657,0.44518 0.21446,0.93294 0.37227,1.38489l0.00266,0.00063z"/>
   <path stroke="null" id="svg_18" filter="url(#y)" opacity="0.3" d="m48.28359,22.17078c0.4193,0.25614 0.79562,0.57043 1.11161,0.92903c0.29318,0.33275 0.5425,0.71004 0.92529,0.95649c0.27036,0.17399 0.5951,0.27206 0.92453,0.30183c0.38685,0.03496 0.77826,-0.02158 1.15116,-0.12138c0.34565,-0.09253 0.67977,-0.22268 0.98638,-0.3946c0.5828,-0.32721 1.06979,-0.80685 1.71115,-1.02191c0.14031,-0.04696 0.28646,-0.08053 0.4217,-0.13845s0.26238,-0.14469 0.32702,-0.26745c0.06338,-0.11792 0.05957,-0.25406 0.07985,-0.38364c0.02155,-0.13845 0.07022,-0.27253 0.09684,-0.41029s0.02979,-0.28522 -0.03549,-0.4119c-0.05425,-0.10499 -0.15274,-0.18784 -0.26618,-0.24057s-0.24083,-0.07661 -0.36809,-0.08238c-0.25426,-0.01154 -0.50549,0.04788 -0.75899,0.069c-0.33589,0.02792 -0.67407,-0.01154 -1.0111,-0.00231c-0.4193,0.01154 -0.83251,0.09807 -1.25155,0.11596c-0.47811,0.02054 -0.95495,-0.04823 -1.43331,-0.06346c-0.20686,-0.00669 -0.41511,-0.00346 -0.61906,0.02919s-0.40408,0.09484 -0.57672,0.19914c-0.16731,0.10119 -0.30382,0.23849 -0.45719,0.35652c-0.07668,0.05907 -0.15819,0.11365 -0.24767,0.15518s-0.18759,0.0698 -0.28773,0.07419c-0.05159,0.00231 -0.10368,-0.00173 -0.15464,0.00542a0.32829,0.29883 0 0 0 -0.26884,0.34671l0.00101,-0.00035z"/>
   <path stroke="null" id="svg_19" fill="url(#AA)" d="m49.37497,16.513a0.98154,0.97 0 0 0 -0.60714,0.268c-0.16494,0.153 -0.28131,0.352 -0.35417,0.564c-0.14369,0.424 -0.10119,0.883 -0.07792,1.33c0.03036,0.404 0.06071,0.815 0.20238,1.2a1.56845,1.55 0 0 0 0.32684,0.509a1.12321,1.11 0 0 0 0.52214,0.305a1.05238,1.04 0 0 0 0.56869,-0.02c0.18214,-0.057 0.35012,-0.16 0.48774,-0.293c0.20036,-0.194 0.33393,-0.447 0.41286,-0.713a2.86368,2.83 0 0 0 0.09512,-0.822c-0.00506,-0.346 -0.0506,-0.694 -0.1619,-1.023s-0.28333,-0.64 -0.52922,-0.888c-0.11839,-0.12 -0.25298,-0.226 -0.40476,-0.3s-0.32381,-0.116 -0.49178,-0.107l0.01113,-0.01z"/>
   <path stroke="null" id="svg_20" fill="url(#AB)" d="m53.36996,16.513c-0.36934,0.218 -0.6547,0.568 -0.79232,0.97c-0.17202,0.504 -0.10827,1.062 0.06375,1.566c0.17607,0.518 0.47762,1.01 0.93297,1.32a1.71011,1.69 0 0 0 0.76601,0.292a1.39642,1.38 0 0 0 0.80446,-0.14c0.2975,-0.154 0.52619,-0.423 0.66583,-0.725s0.20238,-0.635 0.22262,-0.966c0.0253,-0.423 -0.01619,-0.853 -0.15887,-1.253c-0.15381,-0.432 -0.43512,-0.83 -0.82369,-1.077c-0.1953,-0.124 -0.41488,-0.21 -0.64559,-0.242s-0.4675,-0.012 -0.68506,0.066c-0.12446,0.045 -0.24286,0.108 -0.34809,0.188l-0.00202,0.001z"/>
   <path stroke="null" id="svg_21" filter="url(#x)" opacity="0.3" d="m49.30013,20.11989l-0.651,0.58685c-0.11458,0.11399 -0.22942,0.23599 -0.28076,0.38831c-0.04563,0.13528 -0.03701,0.28221 -0.05957,0.42338c-0.00761,0.04835 -0.01901,0.09645 -0.01927,0.1453a0.2459,0.24301 0 0 0 0.00989,0.0724c0.00722,0.02342 0.01901,0.04547 0.03612,0.06338c0.02814,0.02969 0.06819,0.04585 0.1085,0.05386s0.08175,0.00902 0.1227,0.0134c0.18455,0.01967 0.35465,0.1081 0.50751,0.21232l0.44997,0.3238c0.34603,0.2172 0.75962,0.31378 1.16941,0.32919s0.81856,-0.04635 1.22062,-0.12589c0.31941,-0.06313 0.63807,-0.13779 0.94113,-0.25603c0.46429,-0.18088 0.8827,-0.45933 1.28247,-0.75432c0.18164,-0.13403 0.36074,-0.27219 0.52387,-0.42777c0.05539,-0.05286 0.10901,-0.10772 0.16833,-0.15608s0.12523,-0.09044 0.19849,-0.11374c0.11154,-0.03545 0.23272,-0.0253 0.34831,-0.00626c0.08708,0.01441 0.17441,0.03382 0.26263,0.03006c0.04411,-0.00175 0.08835,-0.00927 0.12929,-0.02555s0.07884,-0.04134 0.10685,-0.07516a0.25604,0.25303 0 0 0 0.05602,-0.15933c0.00025,-0.05737 -0.01775,-0.11399 -0.0469,-0.16347c-0.05894,-0.09896 -0.16072,-0.16572 -0.26681,-0.21232c-0.14526,-0.06388 -0.30243,-0.0952 -0.45707,-0.13228c-0.47469,-0.11324 -0.93606,-0.28058 -1.37348,-0.49528c-0.21751,-0.10672 -0.42893,-0.22497 -0.64289,-0.3382c-0.22004,-0.11649 -0.44427,-0.22848 -0.68319,-0.3c-0.53401,-0.15996 -1.11795,-0.10747 -1.64486,0.0734c-0.58559,0.20092 -1.11504,0.55904 -1.51671,1.02564l0.00038,0.00038z"/>
   <path stroke="null" id="svg_22" fill="url(#AC)" d="m50.43545,19.458c0.22262,-0.25 0.37744,-0.552 0.59196,-0.81c0.10726,-0.128 0.23274,-0.245 0.37744,-0.328a0.83988,0.83 0 0 1 0.48369,-0.116c0.1872,0.016 0.36226,0.108 0.49887,0.235s0.2378,0.287 0.31875,0.454c0.07792,0.16 0.13964,0.33 0.25095,0.47c0.1194,0.148 0.28637,0.25 0.43714,0.366a1.2244,1.21 0 0 1 0.20744,0.195c0.06071,0.074 0.10625,0.16 0.12548,0.253s0.01012,0.194 -0.02327,0.284s-0.09107,0.172 -0.15988,0.24c-0.14167,0.133 -0.33089,0.205 -0.52417,0.232c-0.38452,0.054 -0.77512,-0.06 -1.16369,-0.05s-0.77916,0.148 -1.17178,0.134a1.04226,1.03 0 0 1 -0.55857,-0.166a0.70833,0.7 0 0 1 -0.20238,-0.21c-0.0506,-0.083 -0.08095,-0.18 -0.085,-0.276a0.6375,0.63 0 0 1 0.05667,-0.271c0.03744,-0.085 0.09107,-0.163 0.14976,-0.235c0.1194,-0.144 0.26309,-0.264 0.38958,-0.403l0.00101,0.002z"/>
   <path stroke="null" id="svg_23" fill="#7c7c7c" class="J" filter="url(#w)" d="m54.8269,12.56609c-0.32495,0.22659 -0.183,0.50948 -0.04323,0.79352s-0.30728,1.10267 -0.3121,1.13788s0.87993,-0.41494 1.12105,-0.7075c0.28479,-0.34538 1.00436,0.46733 0.96536,0.3435c0.00029,-0.22125 -1.40598,-1.794 -1.73093,-1.5674l-0.00015,0z"/>
   <g stroke="null" id="svg_24" transform="matrix(0.126752 0 0 0.125261 -173.021 328.548)">
    <path stroke="null" id="svg_25" fill="#020204" class="E" d="m1792.50958,-2482.68196c-1.045,0.075 -2.064,0.432 -2.95,1s-1.643,1.315 -2.237,2.18c-1.187,1.728 -1.71,3.847 -1.793,5.94c-0.063,1.572 0.11,3.165 0.632,4.65s1.4,2.86 2.613,3.863c1.24,1.027 2.816,1.644 4.425,1.72s3.24,-0.387 4.56,-1.307c1.053,-0.733 1.902,-1.742 2.507,-2.873s0.97,-2.383 1.135,-3.655c0.294,-2.247 -0.038,-4.593 -1.077,-6.607s-2.8,-3.673 -4.927,-4.456c-0.92,-0.34 -1.91,-0.516 -2.888,-0.446l0,-0.009z"/>
    <path stroke="null" id="svg_26" filter="url(#u)" fill="#141413" d="m1795.00358,-2475.82696c-0.866,0.342 -2.237,0.127 -2.616,0.977c-0.225,0.504 0.093,1.333 0.603,1.54c1.032,0.42 2.632,-0.34 3.05,-1.375c0.18,-0.45 -0.093,-1.16 -0.54,-1.35c-0.165,-0.07 -0.33,0.14 -0.496,0.206l-0.001,0.002z"/>
    <path stroke="null" id="svg_27" filter="url(#v)" fill="url(#AD)" d="m1798.97258,-2473.57696c1.16,-1.16 -0.826,-4.24 -2.375,-5.5c-1.122,-0.913 -4.39,-1.87 -4.25,-0.875s1.6,2.266 2.595,3.237c1.212,1.195 3.48,3.69 4.03,3.138z"/>
   </g>
   <path stroke="null" id="svg_28" fill="url(#AE)" d="m52.03923,17.78164a3.00529,2.96994 0 0 1 1.02948,-0.55115c0.77141,-0.23549 1.64777,-0.14242 2.32944,0.28497c0.23538,0.14756 0.44515,0.33094 0.66418,0.50155s0.45124,0.33069 0.71437,0.42213c0.14196,0.04935 0.29381,0.07804 0.44363,0.06263c0.13537,-0.01403 0.26618,-0.06413 0.37823,-0.14029s0.20597,-0.17762 0.27632,-0.29273c0.14095,-0.2301 0.18633,-0.50919 0.16199,-0.77699c-0.04855,-0.53574 -0.3544,-1.00873 -0.61069,-1.48309c-0.08023,-0.14856 -0.15667,-0.29975 -0.2535,-0.43841c-0.29698,-0.42539 -0.76976,-0.70597 -1.26562,-0.87031s-1.01985,-0.22372 -1.53877,-0.28835c-0.23145,-0.02881 -0.46556,-0.05887 -0.69713,-0.03132c-0.26618,0.03169 -0.51664,0.13779 -0.77635,0.20355c-0.12333,0.03132 -0.24894,0.05324 -0.37113,0.08818s-0.24248,0.08392 -0.34185,0.16234c-0.14513,0.11474 -0.23639,0.28685 -0.27594,0.46635s-0.03042,0.36626 -0.00152,0.54764c0.05805,0.36276 0.1952,0.71699 0.18227,1.08401c-0.00887,0.25203 -0.08898,0.49954 -0.07922,0.75157c0.00292,0.07516 0.01356,0.14743 0.03169,0.21921" clip-path="url(#t)"/>
   <g stroke="null" id="svg_29" transform="matrix(0.126752 0 0 0.125261 -136.39 329.676)">
    <path stroke="null" id="svg_30" filter="url(#s)" fill="url(#AF)" d="m1506.75358,-2508.31396c-0.477,0.6 -0.908,1.252 -1.25,1.97c2.146,0.462 4.2,1.346 6.03,2.563c3.545,2.354 6.237,5.796 8.125,9.625c0.44,-0.488 0.842,-1.012 1.188,-1.594c-1.898,-3.988 -4.644,-7.595 -8.312,-10.03c-1.762,-1.17 -3.725,-2.054 -5.78,-2.53l-0.001,-0.004z"/>
    <path stroke="null" id="svg_31" filter="url(#r)" fill="url(#AG)" d="m1465.37758,-2506.35896c-0.242,-0.005 -0.477,0.017 -0.72,0.028l-0.47,0.028c1.413,0.128 2.818,0.508 4.094,1.08c1.74,0.78 3.274,1.893 4.625,3.16c2.504,2.345 4.365,5.24 5.625,8.31a20.8,20.8 0 0 0 -2.062,-6.659c-0.494,-0.57 -1.006,-1.13 -1.562,-1.65c-1.35,-1.266 -2.886,-2.378 -4.625,-3.16c-1.52,-0.683 -3.214,-1.108 -4.906,-1.138l0.001,0.001z"/>
   </g>
   <path stroke="null" id="svg_32" fill="#020204" class="E" d="m48.83057,18.361c-0.04756,0.28 -0.04857,0.576 0.04857,0.845a1.42678,1.41 0 0 0 0.30053,0.476c0.085,0.1 0.18214,0.173 0.30357,0.226a0.54643,0.54 0 0 0 0.36428,0.046a0.53631,0.53 0 0 0 0.28131,-0.188c0.07083,-0.09 0.12143,-0.195 0.15482,-0.303c0.10119,-0.32 0.085,-0.672 -0.01518,-0.993c-0.07286,-0.234 -0.19429,-0.46 -0.38452,-0.617c-0.09107,-0.075 -0.19631,-0.134 -0.31065,-0.16s-0.23982,-0.02 -0.34708,0.028a0.59702,0.59 0 0 0 -0.2722,0.271c-0.06071,0.115 -0.09107,0.243 -0.11333,0.37l-0.01012,-0.001z"/>
   <path stroke="null" id="svg_33" filter="url(#p)" fill="url(#AH)" d="m49.43293,18.15743c0.03067,0.07942 0.1336,0.10823 0.19013,0.17223c0.05488,0.06225 0.11243,0.12651 0.1426,0.20355c0.05767,0.14731 -0.05704,0.36576 0.06338,0.46973c0.03777,0.03257 0.11344,0.03332 0.15058,0c0.14513,-0.13052 0.11281,-0.39382 0.05552,-0.57933c-0.05197,-0.16835 -0.18087,-0.32768 -0.33969,-0.40772c-0.07352,-0.03695 -0.18379,-0.06764 -0.24666,-0.01503c-0.04056,0.03382 -0.03473,0.10772 -0.01584,0.15658z"/>
   <g stroke="null" id="svg_34" transform="matrix(0.126752 0 0 0.125261 -146.403 328.548)">
    <path stroke="null" id="svg_35" fill="url(#AI)" d="m1536.09958,-2448.40696c0.06,0.295 0.173,0.58 0.327,0.84c0.266,0.445 0.654,0.806 1.073,1.11s0.873,0.56 1.312,0.835c2.334,1.467 4.235,3.53 5.925,5.707c2.267,2.922 4.272,6.165 7.3,8.29c2.138,1.5 4.696,2.355 7.294,2.616c3.05,0.307 6.14,-0.186 9.082,-1.052c2.726,-0.803 5.363,-1.93 7.782,-3.42c4.6,-2.836 8.44,-6.993 13.5,-8.857c1.107,-0.407 2.26,-0.698 3.326,-1.2s2.07,-1.254 2.58,-2.318c0.5,-1.022 0.47,-2.202 0.63,-3.325c0.17,-1.2 0.554,-2.362 0.764,-3.556s0.235,-2.472 -0.28,-3.57c-0.428,-0.91 -1.205,-1.628 -2.1,-2.085s-1.9,-0.664 -2.904,-0.714c-2.006,-0.1 -3.988,0.415 -5.988,0.598c-2.65,0.242 -5.318,-0.098 -7.977,-0.02c-3.308,0.1 -6.568,0.845 -9.874,1.005c-3.772,0.183 -7.535,-0.4 -11.308,-0.55c-1.634,-0.066 -3.28,-0.05 -4.892,0.225s-3.195,0.824 -4.54,1.753c-1.31,0.906 -2.356,2.14 -3.56,3.184c-0.602,0.522 -1.25,1 -1.966,1.347s-1.507,0.564 -2.304,0.547c-0.4,-0.01 -0.83,-0.077 -1.22,0.047c-0.244,0.077 -0.46,0.227 -0.644,0.406s-0.335,0.387 -0.478,0.6a10.52,10.52 0 0 0 -0.867,1.558l0.007,-0.001z"/>
    <path stroke="null" id="svg_36" filter="url(#i)" fill="#d9b30d" d="m1550.90458,-2444.34196a6.7,6.7 0 0 0 4.346,7.847c1.978,0.66 4.207,0.336 6.055,-0.628c1.07,-0.56 2.05,-1.346 2.67,-2.384a4.51,4.51 0 0 0 0.605,-1.696c0.08,-0.6 0.025,-1.22 -0.185,-1.785c-0.23,-0.62 -0.64,-1.168 -1.146,-1.596s-1.105,-0.738 -1.733,-0.946c-1.258,-0.416 -2.61,-0.424 -3.934,-0.36a38.86,38.86 0 0 0 -5.969,0.753"/>
    <path stroke="null" id="svg_37" filter="url(#j)" fill="#604405" d="m1544.41358,-2456.75896l-3.898,2.563c-0.657,0.466 -1.334,0.97 -1.68,1.696c-0.246,0.515 -0.302,1.1 -0.3,1.67s0.03,1.144 -0.046,1.7c-0.05,0.386 -0.154,0.766 -0.172,1.155c-0.01,0.195 0.005,0.39 0.056,0.58a1.2,1.2 0 0 0 0.275,0.509c0.173,0.183 0.408,0.296 0.65,0.37s0.49,0.11 0.736,0.17c1.175,0.276 2.197,0.997 3.094,1.804l2.64,2.476c2.537,2.064 5.9,2.92 9.16,2.973s6.504,-0.63 9.695,-1.35l7.425,-2.044c3.703,-1.365 7.14,-3.432 10.118,-6.022c1.35,-1.174 2.617,-2.464 4.133,-3.415c1.34,-0.842 2.843,-1.398 4.206,-2.203c0.122,-0.072 0.243,-0.146 0.352,-0.237s0.206,-0.198 0.27,-0.325c0.11,-0.22 0.11,-0.48 0.04,-0.716s-0.206,-0.444 -0.36,-0.634c-0.17,-0.21 -0.363,-0.402 -0.57,-0.578c-1.424,-1.22 -3.357,-1.662 -5.226,-1.81s-3.76,-0.043 -5.6,-0.352c-1.74,-0.3 -3.393,-0.94 -5.072,-1.477a37.34,37.34 0 0 0 -5.389,-1.31c-4.295,-0.7 -8.717,-0.566 -12.977,0.32c-4.058,0.845 -7.97,2.37 -11.54,4.48l-0.02,0.007z"/>
    <path stroke="null" id="svg_38" fill="url(#AJ)" d="m1543.98758,-2461.28496c-1.93,1.3 -3.666,2.883 -5.136,4.685c-0.84,1.03 -1.604,2.15 -2.027,3.412c-0.333,0.992 -0.446,2.042 -0.656,3.067c-0.08,0.384 -0.17,0.77 -0.17,1.16c0.001,0.196 0.026,0.393 0.086,0.58s0.158,0.362 0.294,0.503c0.225,0.234 0.54,0.36 0.858,0.426s0.644,0.075 0.966,0.112c1.455,0.165 2.794,0.872 4,1.702l3.554,2.578c2.734,1.73 5.995,2.498 9.227,2.623s6.457,-0.366 9.63,-1c2.52,-0.503 5.034,-1.1 7.425,-2.044c3.662,-1.444 6.964,-3.667 10.118,-6.022c1.433,-1.07 2.846,-2.173 4.133,-3.415c0.437,-0.422 0.86,-0.86 1.328,-1.246s0.988,-0.722 1.566,-0.908c0.88,-0.283 1.836,-0.202 2.748,-0.05c0.687,0.115 1.376,0.27 2.072,0.24c0.348,-0.014 0.697,-0.074 1.02,-0.204s0.622,-0.33 0.843,-0.6a2.02,2.02 0 0 0 0.442,-1.272c0.002,-0.458 -0.14,-0.91 -0.37,-1.305c-0.465,-0.79 -1.268,-1.323 -2.105,-1.695c-1.146,-0.51 -2.386,-0.76 -3.606,-1.056c-3.745,-0.904 -7.385,-2.24 -10.836,-3.954c-1.716,-0.852 -3.384,-1.796 -5.072,-2.7c-1.736,-0.93 -3.505,-1.824 -5.39,-2.395c-4.213,-1.277 -8.82,-0.858 -12.977,0.586c-4.62,1.604 -8.797,4.463 -11.966,8.188l0.001,0.004z"/>
    <path stroke="null" id="svg_39" filter="url(#k)" fill="#f6da4a" d="m1573.58758,-2460.35896c-0.226,-0.286 -0.55,-0.488 -0.9,-0.59s-0.725,-0.1 -1.084,-0.05c-0.72,0.123 -1.364,0.5 -1.966,0.925c-1.71,1.176 -3.22,2.628 -4.537,4.23c-1.745,2.12 -3.185,4.572 -3.668,7.275c-0.08,0.455 -0.135,0.92 -0.078,1.38s0.233,0.915 0.56,1.243c0.286,0.288 0.676,0.464 1.078,0.522s0.816,0.002 1.2,-0.128c0.77,-0.26 1.41,-0.8 2.014,-1.34c3.336,-2.985 6.353,-6.568 7.56,-10.88c0.12,-0.433 0.224,-0.876 0.22,-1.325s-0.12,-0.91 -0.398,-1.262l-0.001,0z"/>
    <path stroke="null" id="svg_40" filter="url(#m)" fill="url(#AK)" opacity="0.8" d="m1565.59758,-2466.53896c0.23,0.742 1.428,0.62 2.12,0.975c0.607,0.312 1.094,0.997 1.777,1.017c0.65,0.02 1.664,-0.225 1.75,-0.87c0.112,-0.853 -1.134,-1.395 -1.935,-1.708c-1.03,-0.402 -2.353,-0.606 -3.32,-0.068c-0.222,0.123 -0.464,0.412 -0.388,0.655l-0.004,-0.001z"/>
    <path stroke="null" id="svg_41" filter="url(#n)" fill="url(#AL)" opacity="0.8" d="m1554.17458,-2466.96896c-0.888,-0.29 -2.357,1.277 -1.878,2.08c0.132,0.22 0.535,0.5 0.806,0.35c0.41,-0.225 0.744,-1.03 1.187,-1.345c0.296,-0.21 0.23,-0.972 -0.116,-1.084l0.001,-0.001z"/>
    <ellipse stroke="null" id="svg_42" filter="url(#o)" fill="url(#AM)" transform="matrix(1.09562 0 -0.170179 1.51813 -136.244 -82.1175)" cx="1336.18028" cy="-1563.20047" rx="2.608" ry="2.328"/>
    <path stroke="null" id="svg_43" fill="url(#AN)" d="m1540.73958,-2483.91196c2.685,-1.6 5.955,-1.97 9.067,-1.676s6.125,1.208 9.14,2.03c2.212,0.602 4.452,1.16 6.525,2.138s4,2.416 5.142,4.403l0.54,0.962c0.194,0.312 0.423,0.61 0.716,0.83s0.657,0.364 1.024,0.344c0.184,-0.01 0.366,-0.06 0.524,-0.154s0.293,-0.23 0.378,-0.392c0.098,-0.187 0.128,-0.404 0.117,-0.616a2.94,2.94 0 0 0 -0.117,-0.622c-0.755,-2.753 -2.535,-5.088 -3.89,-7.6l-2.298,-4.596c-2.818,-5.16 -7.444,-9.216 -12.7,-11.847s-11.127,-3.896 -16.997,-4.24c-6.8,-0.398 -13.62,0.41 -20.33,1.59c-2.91,0.512 -5.86,1.115 -8.436,2.562c-1.287,0.723 -2.467,1.657 -3.388,2.81s-1.576,2.535 -1.788,3.997c-0.204,1.41 0.01,2.86 0.5,4.196s1.258,2.558 2.157,3.662c1.797,2.208 4.1,3.934 6.222,5.83s4.1,3.992 6.463,5.563c1.186,0.785 2.473,1.435 3.843,1.817s2.83,0.49 4.224,0.204c1.445,-0.296 2.783,-1.005 3.954,-1.902s2.186,-1.98 3.148,-3.098c1.925,-2.236 3.723,-4.686 6.257,-6.196l0.003,0.001z" clip-path="url(#h)"/>
   </g>
   <path stroke="null" id="svg_44" fill="#020204" class="E" d="m60.89345,29.426c0.77107,0.613 1.26083,1.54 1.41261,2.506c0.11839,0.754 0.04048,1.528 -0.13155,2.27s-0.43714,1.463 -0.70125,2.18c-0.10524,0.286 -0.21048,0.575 -0.25298,0.876s-0.01518,0.62 0.13155,0.888c0.16899,0.306 0.48369,0.517 0.82166,0.617a1.97321,1.95 0 0 0 1.03315,0.013c0.33798,-0.083 0.65369,-0.246 0.92893,-0.457c0.69821,-0.537 1.12119,-1.37 1.28512,-2.23s0.08804,-1.747 -0.06375,-2.61c-0.20744,-1.175 -0.55655,-2.324 -0.99875,-3.433c-0.32583,-0.816 -0.70833,-1.618 -1.24059,-2.32c-0.52214,-0.686 -1.17988,-1.264 -1.68988,-1.958c-0.35417,-0.482 -0.63952,-1.02 -1.06553,-1.444a2.17559,2.15 0 0 0 -0.74274,-0.5a1.41666,1.4 0 0 0 -0.88744,-0.059c-0.3825,0.107 -0.69619,0.405 -0.86214,0.762s-0.1953,0.767 -0.13155,1.155c0.08399,0.5 0.31369,0.965 0.57678,1.402c0.29345,0.493 0.6375,0.968 1.08273,1.335c0.46547,0.383 1.02708,0.635 1.49761,1l-0.00202,0.007z"/>
   <path stroke="null" id="svg_45" filter="url(#g)" fill="#838384" clip-path="url(#f)" d="m59.07777,28.24482l0.19356,0.17223c0.4732,0.38267 0.72522,0.81232 1.205,1.1871c0.78523,0.61315 1.58206,1.67148 1.73614,2.638c0.12027,0.75407 -0.03871,1.16367 -0.23292,2.05278s-0.74458,2.14798 -1.04189,3.00526c-0.11872,0.34196 0.24002,0.20079 0.19305,0.56117a2.28664,2.21963 0 0 0 -0.00452,0.53349l0.00903,-0.10296c0.05717,-0.4914 0.20944,-0.96388 0.37551,-1.42735c0.31925,-0.89211 0.68573,-1.76618 0.9384,-2.68159s0.22453,-1.57378 0.09291,-2.36042c-0.16582,-0.98906 -0.74806,-1.90234 -1.57264,-2.50522c-0.58327,-0.42626 -1.27068,-0.69958 -1.89125,-1.07248l-0.00039,0z"/>
   <path stroke="null" id="svg_46" filter="url(#e)" fill="url(#AO)" opacity="0.25" d="m47.05361,27.69054c0.12875,0.1909 -0.08003,0.84902 2.92095,0.42777c0,0 -0.52701,0.05724 -1.04656,0.17587c-0.80764,0.26718 -1.51139,0.5658 -2.0542,0.96138c-0.53784,0.39106 -0.93156,0.9015 -1.42507,1.33992c0,0 0.79915,-1.44301 0.99828,-1.87729s-0.03336,-0.41336 0.12436,-1.05395s0.54325,-1.25349 0.54325,-1.25349s-0.31486,0.90313 -0.06101,1.27967l0,0.00013z"/>
   <g stroke="null" id="svg_47" transform="matrix(0.126752 0 0 0.125261 -136.39 329.676)">
    <path stroke="null" id="svg_48" filter="url(#d)" fill="url(#AP)" opacity="0.42" d="m1523.39758,-2412.22096c-4.825,3.36 -7.652,2.963 -13.507,3.62s-21.698,0.42 -21.698,0.42s2.294,-0.043 7.378,0.904s15.453,1.852 21.292,4.075s7.968,2.857 11.517,5.1c5.05,3.194 8.758,8.197 13.587,11.697c0,0 0.234,-4.644 -1.716,-8.112s-7.2,-8.935 -8.732,-14.04s-2.274,-15.132 -2.274,-15.132s-1.02,8.105 -5.846,11.466l-0.001,0.002z"/>
    <path stroke="null" id="svg_49" filter="url(#c)" fill="url(#AQ)" opacity="0.2" d="m1478.01758,-2419.39896l-0.697,4.344c-0.14,0.71 -0.295,1.42 -0.56,2.093s-0.644,1.312 -1.18,1.796c-0.47,0.424 -1.044,0.716 -1.62,0.98c-2.248,1.03 -4.654,1.713 -7.108,2.02l2.935,0.268c0.615,0.067 1.232,0.142 1.832,0.296s1.185,0.4 1.684,0.755c0.548,0.4 0.978,0.948 1.3,1.546c0.64,1.192 0.854,2.563 0.973,3.9c0.15,1.723 0.162,3.46 0.033,5.184c0.116,-1.154 0.358,-2.296 0.72,-3.398c0.653,-1.986 1.704,-3.848 3.12,-5.386c0.562,-0.61 1.18,-1.17 1.86,-1.648a10.29,10.29 0 0 1 7.236,-1.761a11.24,11.24 0 0 1 -7.194,-2.233c-1.042,-0.785 -1.95,-1.763 -2.58,-2.905a8.11,8.11 0 0 1 -0.751,-5.861l-0.003,0.01z"/>
    <path stroke="null" id="svg_50" filter="url(#a)" opacity="0.1" d="m1471.84758,-2385.35896a88.71,88.71 0 0 0 -2.526,14.277c-0.637,6.812 -0.484,13.672 -0.85,20.505c-0.3,5.798 -0.99,11.656 0.016,17.374c0.48,2.727 1.343,5.385 2.555,7.875a26.9,26.9 0 0 0 0.422,-2.876c0.427,-4.636 -0.354,-9.287 -0.618,-13.935c-0.462,-8.147 0.666,-16.3 1.125,-24.438a149.28,149.28 0 0 0 -0.125,-18.781l0.001,-0.001z"/>
    <path stroke="null" id="svg_51" filter="url(#Z)" fill="#838384" d="m1528.03558,-2455.57696c-2.162,1.97 1.014,4.928 2.52,8.404c0.936,2.16 3.527,5.205 6.032,4.718c1.885,-0.367 3.054,-3.08 2.876,-4.99c-0.344,-3.69 -3.457,-4.553 -5.717,-5.82c-1.79,-1.004 -4.193,-3.694 -5.71,-2.31l-0.001,-0.002z"/>
   </g>
   <g stroke="null" id="svg_52" transform="matrix(0.126752 0 0 0.125261 -133.728 328.548)">
    <path stroke="null" id="svg_53" filter="url(#S)" fill="url(#AR)" opacity="0.2" d="m2017.91193,-2281.56296c0.93446,1.597 -1.61221,3.388 -2.8917,4.738c-2.81571,2.973 -6.6234,4.902 -10.16203,7.02c-6.07299,3.635 -12.95926,5.903 -18.91518,9.717c-3.98739,2.553 -7.525,5.722 -11.15195,8.742c-3.10324,2.584 -5.62937,5.876 -9.06943,8.018s-7.23336,4.154 -11.28544,4.65c-4.91158,0.6 -10.13739,-0.256 -14.68443,-2.164c-3.1782,-1.334 -6.3256,-3.38 -8.17707,-6.23c-1.86174,-2.865 -2.11538,-6.538 -2.29303,-9.924c-0.31525,-6.06 1.39964,-12.06 2.23655,-18.073c0.69828,-5.002 1.90281,-9.943 2.32076,-14.975c0.75989,-9.142 -0.80097,-18.408 0.3286,-27.513c0.36454,-2.937 -0.18484,-6.66 2.06609,-8.644c2.09279,-1.845 5.57597,-1.12 8.3999,-1.063c3.43492,0.07 6.81029,0.95 10.15587,1.717c2.11127,0.483 4.10548,1.41 6.23523,1.81c3.53248,0.663 7.15327,1.066 10.74838,0.952c3.88675,-0.124 7.63693,-1.796 11.52573,-1.765c1.59372,0.013 3.20798,0.282 4.70929,0.8c1.52287,0.525 3.06833,1.206 4.23384,2.295c0.88825,0.83 1.46844,1.957 1.93054,3.07c0.69007,1.662 0.91803,3.478 1.19837,5.25c0.24851,1.574 -0.15711,3.27 0.42513,4.76c1.8792,4.8 5.72693,8.727 9.473,12.343c1.78986,1.935 4.13834,3.534 6.33279,4.828c2.33102,1.374 4.48542,2.45 5.60986,4.816c0.67774,1.485 -0.55862,3.76 0.70136,4.826l-0.00103,-0.001z"/>
    <g stroke="null" id="svg_54">
     <path stroke="null" id="svg_55" fill="url(#AS)" d="m1596.35358,-2281.56296c-0.67,1.72 -1.627,3.327 -2.816,4.738c-2.624,3.115 -6.268,5.17 -9.896,7.02c-6.19,3.154 -12.602,5.922 -18.42,9.717c-3.898,2.542 -7.496,5.527 -10.86,8.742c-2.877,2.75 -5.606,5.687 -8.832,8.018c-3.256,2.35 -7.02,4.054 -10.99,4.65c-4.83,0.725 -9.82,-0.213 -14.3,-2.164c-3.138,-1.367 -6.156,-3.323 -7.963,-6.23c-1.814,-2.918 -2.228,-6.488 -2.233,-9.924c-0.008,-6.077 1.118,-12.1 2.178,-18.073c0.88,-4.972 1.72,-9.955 2.26,-14.975c0.983,-9.13 0.976,-18.353 0.32,-27.513c-0.1,-1.534 -0.238,-3.083 -0.008,-4.604s0.855,-3.037 2.02,-4.04c1.077,-0.927 2.52,-1.336 3.94,-1.414s2.834,0.147 4.24,0.352c3.313,0.484 6.652,0.865 9.89,1.717c2.043,0.537 4.033,1.26 6.072,1.81c3.403,0.92 6.966,1.36 10.467,0.952c3.77,-0.44 7.43,-1.857 11.224,-1.765c1.557,0.038 3.1,0.332 4.586,0.8c1.515,0.478 3.01,1.162 4.123,2.295c0.846,0.86 1.436,1.945 1.88,3.07c0.66,1.674 1.015,3.457 1.167,5.25c0.135,1.588 0.113,3.194 0.414,4.76c0.495,2.575 1.847,4.923 3.528,6.935s3.7,3.72 5.696,5.408c2,1.68 4.01,3.355 6.167,4.828c1.012,0.692 2.056,1.34 3.017,2.1s1.845,1.647 2.445,2.715c0.815,1.45 1.064,3.208 0.683,4.826l0.001,-0.001z" clip-path="url(#T)"/>
     <path stroke="null" id="svg_56" filter="url(#V)" fill="#cd8907" d="m1593.23758,-2284.71496a15.31,15.31 0 0 1 -2.571,4.26c-2.402,2.814 -5.73,4.654 -9.038,6.31c-5.653,2.83 -11.503,5.318 -16.82,8.735c-3.554,2.284 -6.84,4.966 -9.918,7.86c-2.63,2.473 -5.125,5.116 -8.066,7.208c-2.98,2.12 -6.418,3.647 -10.037,4.18c-4.41,0.65 -8.96,-0.193 -13.058,-1.946c-2.857,-1.222 -5.617,-2.97 -7.272,-5.6c-1.646,-2.617 -2.03,-5.83 -2.04,-8.922c-0.013,-5.465 1.018,-10.87 1.99,-16.248c0.807,-4.47 1.575,-8.948 2.064,-13.463c0.89,-8.208 0.848,-16.498 0.292,-24.735c-0.093,-1.38 -0.2,-2.774 0.012,-4.14s0.778,-2.727 1.826,-3.63c0.983,-0.847 2.303,-1.218 3.6,-1.286s2.587,0.142 3.87,0.33c3.023,0.445 6.072,0.78 9.03,1.543c1.865,0.482 3.684,1.132 5.545,1.628c3.11,0.83 6.362,1.225 9.56,0.856c3.44,-0.397 6.787,-1.67 10.25,-1.587c1.42,0.035 2.83,0.3 4.19,0.72c1.382,0.426 2.75,1.034 3.765,2.063c0.766,0.775 1.295,1.754 1.716,2.76c0.626,1.497 1.033,3.097 1.066,4.72c0.035,1.694 -0.336,3.395 -0.106,5.073c0.186,1.363 0.763,2.648 1.5,3.81s1.634,2.21 2.523,3.26c1.717,2.03 3.44,4.097 5.593,5.655c2.452,1.774 5.362,2.81 7.895,4.467c0.755,0.494 1.486,1.052 2.018,1.78a4.76,4.76 0 0 1 0.624,4.339l-0.003,0z" clip-path="url(#U)"/>
    </g>
    <path stroke="null" id="svg_57" filter="url(#X)" fill="#f5c021" d="m1592.88571,-2286.46152c-0.68807,1.55887 -1.57959,3.01175 -2.64027,4.30074c-2.46082,2.99204 -5.78344,5.05245 -9.28436,6.37348c-5.76286,2.17748 -12.05378,2.46954 -17.71035,4.94894c-3.4472,1.51081 -6.54923,3.78687 -9.6924,5.93971c-2.53968,1.73755 -5.13423,3.41348 -7.92308,4.62854c-3.14889,1.37402 -6.49894,2.14421 -9.85928,2.68643c-2.13736,0.34505 -4.301,0.59644 -6.46008,0.4769s-4.32501,-0.62478 -6.2292,-1.72523c-1.44472,-0.8355 -2.74313,-2.037 -3.51578,-3.59587c-0.85723,-1.73262 -1.00582,-3.76592 -0.98524,-5.73022c0.05258,-5.23237 1.17269,-10.40805 1.1384,-15.64042c-0.02972,-4.5546 -0.93152,-9.05128 -1.19098,-13.59725c-0.49948,-8.7432 1.37728,-17.63798 -0.27431,-26.21483c-0.26288,-1.37279 -0.61949,-2.74434 -0.60235,-4.14671c0.00914,-0.70241 0.1143,-1.40483 0.36004,-2.05425s0.64349,-1.23847 1.17155,-1.64882c0.44576,-0.34505 0.97153,-0.55454 1.51215,-0.64942s1.09382,-0.0764 1.63674,0.00863c1.08354,0.16883 2.11678,0.59397 3.17175,0.90821c3.01973,0.89958 6.20977,0.87987 9.2775,1.55887c1.92591,0.42638 3.79124,1.1214 5.69657,1.64389c3.20032,0.86261 6.5378,1.24833 9.82042,0.86261c3.53178,-0.41282 6.98013,-1.69442 10.5302,-1.602c1.455,0.03697 2.89972,0.30808 4.30329,0.72706s2.806,1.01049 3.86782,2.0826c0.76579,0.77389 1.31442,1.7622 1.76246,2.78501c0.65149,1.49355 1.10525,3.11773 1.09497,4.76656c-0.00571,0.85892 -0.13716,1.71044 -0.21374,2.56319s-0.10058,1.73016 0.10287,2.5595s0.63321,1.58598 1.12354,2.26744s1.04582,1.30624 1.55216,1.97415c1.41957,1.86941 2.43453,4.04812 3.53978,6.1492s2.34538,4.18121 4.09184,5.69325c2.37738,2.06041 5.46112,2.88359 8.11053,4.51024c0.77722,0.4769 1.52815,1.03514 2.07335,1.79917a4.309,4.64579 0 0 1 0.64121,4.38208l0.00229,0.00863z" clip-path="url(#W)"/>
    <path stroke="null" id="svg_58" filter="url(#Y)" fill="url(#AT)" d="m1517.65758,-2322.78896c3.276,-0.887 6.066,1.597 8.442,3.472c1.535,1.31 3.753,0.98 5.637,1.042c3.12,-0.113 6.225,0.523 9.347,0.136c6.145,-0.52 12.168,-2.03 18.342,-2.3c2.95,-0.186 6.26,-0.357 8.808,1.365c1.033,0.716 2.547,3.74 3.566,2.605c-0.42,-3.178 -2.777,-6.256 -5.94,-7.102c-2.475,-0.39 -5,0.29 -7.49,0.07c-7.423,-0.177 -14.793,-1.555 -22.234,-1.16c-5.176,0.045 -10.347,-0.195 -15.515,-0.397c-2.03,-0.415 -2.747,1.39 -3.85,2.08"/>
   </g>
   <g stroke="null" id="svg_59" fill="#7c7c7c" class="J">
    <path stroke="null" id="svg_60" filter="url(#R)" opacity="0.75" d="m60.49956,30.02428c0.15052,-0.023 1.07954,0.75755 0.95255,1.04878s-0.36562,0.11516 -0.53632,0.11712s-0.63763,0.21143 -0.71585,0.07927s0.20653,-0.44092 0.35555,-0.69885c0.12001,-0.20778 -0.2065,-0.52185 -0.05588,-0.54487l-0.00005,-0.00145z"/>
    <path stroke="null" id="svg_61" filter="url(#Q)" opacity="0.25" d="m47.39047,25.11139c-0.01504,-0.17985 -0.27488,-0.20675 -0.39077,-0.11712c-0.09787,0.07585 -0.18965,0.33455 -0.10523,0.43581c0.13724,0.16407 0.51649,-0.07199 0.49599,-0.31845l0.00002,-0.00024z"/>
   </g>
   <g stroke="null" id="svg_62" transform="matrix(0.126752 0 0 0.125261 -133.728 328.548)">
    <use stroke="null" id="svg_63" x="1490.34758" y="-2613.43896" filter="url(#O)" fill="url(#AU)" opacity="0.35" xlink:href="#Aa"/>
    <use stroke="null" id="svg_64" x="1490.34758" y="-3615.0903" filter="url(#P)" fill="url(#AV)" opacity="0.35" transform="matrix(1 0 0 0.722925 0 80.7585)" xlink:href="#Aa"/>
    <path stroke="null" id="svg_65" fill="#020204" class="E" d="m1566.53558,-2328.11096c-0.405,-1.104 -1.118,-2.082 -1.99,-2.87s-1.9,-1.392 -2.983,-1.852c-2.165,-0.92 -4.52,-1.26 -6.832,-1.696l-6.528,-1.277c-2.27,-0.386 -4.618,-0.632 -6.865,-0.125c-1.966,0.443 -3.784,1.46 -5.272,2.82s-2.65,3.056 -3.485,4.9c-1.472,3.23 -1.935,6.865 -1.654,10.403c0.21,2.633 0.875,5.346 2.61,7.34c1.4,1.61 3.387,2.615 5.434,3.22c3.525,1.043 7.367,0.988 10.86,-0.155a28.59,28.59 0 0 0 14.33,-10.779c1.14,-1.65 2.112,-3.448 2.553,-5.403c0.336,-1.5 0.348,-3.08 -0.178,-4.515l0,-0.011z"/>
    <g stroke="null" id="svg_66">
     <use stroke="null" id="svg_67" x="1180.34758" y="-2613.43896" filter="url(#M)" fill="url(#AW)" clip-path="url(#L)" xlink:href="#Ab"/>
     <use stroke="null" id="svg_68" x="1180.34758" y="-2613.43896" filter="url(#M)" fill="url(#AX)" clip-path="url(#N)" xlink:href="#Ab"/>
    </g>
   </g>
   <path stroke="null" id="svg_69" fill="#020204" class="E" d="m47.38153,24.288l-2.14523,2.654c-0.44827,0.55 -0.90666,1.102 -1.19809,1.745c-0.25095,0.553 -0.36934,1.153 -0.54036,1.735c-0.1953,0.66 -0.4594,1.3 -0.7569,1.92l-0.88035,1.695c-0.22059,0.408 -0.44524,0.824 -0.52113,1.28c-0.06071,0.36 -0.0253,0.732 0.0678,1.086s0.24286,0.7 0.41083,1.015c0.70833,1.387 1.79613,2.583 3.07315,3.498c0.57982,0.415 1.20012,0.774 1.85178,1.068c0.35417,0.16 0.72452,0.3 1.11309,0.308c0.19429,0.003 0.38958,-0.028 0.56666,-0.105s0.33595,-0.2 0.44119,-0.362c0.12952,-0.198 0.17405,-0.443 0.14774,-0.677a1.63928,1.62 0 0 0 -0.24286,-0.659c-0.30357,-0.49 -0.78119,-0.847 -1.2416,-1.2l-2.8738,-2.4c-0.26006,-0.24 -0.51911,-0.486 -0.70125,-0.787c-0.17708,-0.294 -0.27321,-0.628 -0.33696,-0.964c-0.17708,-0.92 -0.13155,-1.89 0.18518,-2.772c0.12446,-0.346 0.28738,-0.675 0.44524,-1.007c0.27321,-0.575 0.53327,-1.16 0.89351,-1.687c0.44827,-0.655 1.04833,-1.2 1.41363,-1.914c0.30863,-0.594 0.43309,-1.262 0.5525,-1.92l0.27726,-1.543l-0.00101,-0.007z"/>
   <path stroke="null" id="svg_70" fill="#7c7c7c" class="J" filter="url(#K)" opacity="0.95" d="m45.33154,29.27847a4.18281,4.13361 0 0 0 -0.75455,0.91666c-0.33817,0.55866 -0.53743,1.18597 -0.78307,1.78998c-0.18303,0.44969 -0.3961,0.901 -0.4217,1.38489c-0.01306,0.24852 0.02408,0.49679 0.03258,0.74555s-0.01496,0.50731 -0.13943,0.72451c-0.10305,0.18163 -0.27454,0.32443 -0.47316,0.39382a1.40314,1.38664 0 0 1 0.67622,0.48413c0.14133,0.18789 0.2317,0.4076 0.3544,0.60752c0.09975,0.16259 0.2222,0.31315 0.37303,0.43152s0.33082,0.20292 0.52184,0.2271a0.92022,0.90939 0 0 0 0.73072,-0.23073c-0.244,-2.25921 -0.02053,-4.56664 0.65277,-6.73904c0.04246,-0.13716 0.08708,-0.27532 0.0976,-0.41837s-0.01648,-0.29411 -0.10444,-0.4081c-0.0469,-0.06075 -0.11002,-0.10898 -0.18126,-0.13879s-0.15033,-0.04071 -0.22689,-0.03157s-0.15083,0.03833 -0.21294,0.08392s-0.1118,0.10735 -0.14285,0.17724l0.00114,-0.00025z" clip-path="url(#J)"/>
   <g stroke="null" id="svg_71" transform="matrix(0.126752 0 0 0.125261 -164.148 328.548)" clip-path="url(#F)">
    <path stroke="null" id="svg_72" fill="url(#AY)" d="m1627.92458,-2332.41896c1.6,-0.663 3.398,-0.784 5.1,-0.47s3.31,1.05 4.743,2.022c2.864,1.946 4.988,4.778 7.023,7.58c4.672,6.434 9.17,13.002 13.245,19.83c3.306,5.538 6.344,11.257 10.164,16.453c2.494,3.392 5.307,6.54 7.813,9.922s4.728,7.056 5.84,11.117c1.444,5.277 0.885,11.093 -1.627,15.953c-1.767,3.42 -4.476,6.352 -7.772,8.34s-7.17,3.014 -11.016,2.87c-6.114,-0.23 -11.7,-3.285 -17.384,-5.55c-11.58,-4.612 -24.16,-6.06 -36.097,-9.652c-3.67,-1.104 -7.276,-2.41 -10.97,-3.426c-1.64,-0.45 -3.31,-0.848 -4.86,-1.55s-3,-1.75 -3.862,-3.217c-0.666,-1.134 -0.948,-2.47 -0.93,-3.786s0.326,-2.615 0.774,-3.852c0.896,-2.474 2.343,-4.714 3.32,-7.157c1.595,-3.99 1.882,-8.388 1.667,-12.68s-0.91,-8.545 -1.205,-12.83c-0.13,-1.914 -0.18,-3.853 0.185,-5.736s1.176,-3.725 2.558,-5.055c1.274,-1.227 2.965,-1.955 4.696,-2.317s3.515,-0.377 5.284,-0.338s3.54,0.134 5.304,-0.01s3.533,-0.54 5.07,-1.418c1.46,-0.834 2.654,-2.075 3.644,-3.434s1.79,-2.846 2.61,-4.314s1.668,-2.932 2.742,-4.226s2.39,-2.423 3.943,-3.067l-0.002,-0.002z"/>
    <path stroke="null" id="svg_73" filter="url(#G)" fill="#d99a03" d="m1630.44758,-2329.65896c1.455,-0.586 3.094,-0.65 4.623,-0.304s2.95,1.1 4.188,2.047c2.478,1.914 4.2,4.614 5.854,7.27c3.97,6.433 7.85,12.934 11.516,19.567c2.777,4.993 5.425,10.093 8.837,14.68c2.264,3.042 4.847,5.83 7.158,8.837s4.37,6.282 5.393,9.933c1.316,4.706 0.783,9.9 -1.495,14.233a18.98,18.98 0 0 1 -7.186,7.513a18.5,18.5 0 0 1 -10.087,2.488c-5.598,-0.258 -10.71,-3.054 -15.98,-4.95c-10.103,-3.666 -21.053,-4.158 -31.416,-7.02c-3.715,-1.008 -7.337,-2.353 -11.07,-3.294c-1.652,-0.417 -3.333,-0.757 -4.902,-1.42s-3.047,-1.69 -3.898,-3.165c-0.633,-1.097 -0.886,-2.388 -0.847,-3.654s0.36,-2.5 0.8,-3.694c0.902,-2.367 2.32,-4.5 3.23,-6.875c1.38,-3.574 1.55,-7.504 1.294,-11.326s-0.92,-7.61 -1.153,-11.434c-0.104,-1.71 -0.12,-3.44 0.226,-5.116s1.076,-3.3 2.295,-4.512c1.32,-1.31 3.14,-2.024 4.977,-2.304s3.706,-0.158 5.555,0.007s3.705,0.373 5.56,0.262s3.736,-0.563 5.27,-1.607c1.397,-0.945 2.446,-2.324 3.244,-3.798s1.368,-3.055 1.976,-4.617s1.267,-3.122 2.222,-4.5s2.236,-2.605 3.806,-3.235"/>
    <path stroke="null" id="svg_74" filter="url(#H)" fill="#f5bd0c" d="m1629.10058,-2333.29373c1.41,-0.69922 3.07,-0.8426 4.616,-0.52736s2.978,1.07043 4.196,2.05837c2.435,1.9641 3.98,4.78748 5.42,7.54704c3.305,6.33912 6.383,12.81573 10.338,18.78461c2.87,4.32101 6.18,8.3641 9.082,12.67333c3.936,5.84319 7.136,12.27167 8.456,19.15681c0.888,4.63134 0.86,9.62407 -1.372,13.80563c-1.47,2.74581 -3.85,5.00844 -6.663,6.40786s-6.043,1.98079 -9.19,1.70287c-4.954,-0.43701 -9.454,-2.87249 -14.117,-4.57143c-8.275,-3.01489 -17.218,-3.73473 -25.734,-6.01013c-3.592,-0.95946 -7.1,-2.19488 -10.75,-2.94614c-1.606,-0.33586 -3.244,-0.57941 -4.777,-1.15882s-2.986,-1.53789 -3.77,-2.95596c-0.55,-0.99776 -0.737,-2.16542 -0.654,-3.29674s0.42,-2.23416 0.865,-3.282c0.888,-2.09569 2.2,-4.01658 2.9,-6.18297c1.013,-3.1838 0.597,-6.6357 -0.164,-9.88726s-1.857,-6.44223 -2.194,-9.76156c-0.15,-1.47798 -0.147,-2.98543 0.19,-4.43395s1.027,-2.84008 2.11,-3.87909c1.393,-1.33755 3.344,-2.00338 5.283,-2.18997s3.892,0.06874 5.82,0.34372s3.868,0.58923 5.815,0.49102s3.928,-0.59905 5.453,-1.79126c1.508,-1.17846 2.456,-2.93338 3,-4.74918s0.72,-3.71411 0.943,-5.59375s0.5,-3.77696 1.23,-5.52893s1.96,-3.36646 3.68,-4.21986l-0.012,-0.00491z"/>
    <path stroke="null" id="svg_75" filter="url(#I)" fill="url(#AZ)" d="m1646.75458,-2317.46896c2.606,4.713 4.196,10.122 6.78,14.875c2.378,4.372 5.084,8.874 7.5,12.906c1.075,1.795 3.583,4.555 6.12,8.837c2.298,3.88 4.618,9.297 5.917,11.116c-0.746,-2.13 -2.28,-7.847 -4.11,-11.923c-1.7,-3.81 -3.7,-5.982 -4.927,-8.03c-2.416,-4.032 -5.017,-7.656 -7.5,-11.5c-3.425,-5.302 -6.036,-11.235 -9.78,-16.28l0,-0.001z"/>
   </g>
  </g>
 </g>
</svg>